{
  "accessors": [
    {
      "bufferView": 0,
      "componentType": 5125,
      "count": 603,
      "type": "SCALAR"
    },
    {
      "bufferView": 1,
      "componentType": 5126,
      "count": 204,
      "max": [
        1.00000095367432,
        6.2912540435791,
        1.0
      ],
      "min": [
        -0.999999940395355,
        5.16698884963989,
        -0.999999940395355
      ],
      "type": "VEC3"
    },
    {
      "bufferView": 2,
      "componentType": 5126,
      "count": 204,
      "type": "VEC3"
    },
    {
      "bufferView": 3,
      "componentType": 5126,
      "count": 204,
      "type": "VEC4"
    },
    {
      "bufferView": 4,
      "componentType": 5126,
      "count": 204,
      "type": "VEC2"
    },
    {
      "bufferView": 5,
      "componentType": 5125,
      "count": 37473,
      "type": "SCALAR"
    },
    {
      "bufferView": 6,
      "componentType": 5126,
      "count": 12336,
      "max": [
        2.1550407409668,
        7.92935419082642,
        1.88562989234924
      ],
      "min": [
        -2.16799783706665,
        -0.00381040573120117,
        -1.88563191890717
      ],
      "type": "VEC3"
    },
    {
      "bufferView": 7,
      "componentType": 5126,
      "count": 12336,
      "type": "VEC3"
    },
    {
      "bufferView": 8,
      "componentType": 5126,
      "count": 12336,
      "type": "VEC4"
    },
    {
      "bufferView": 9,
      "componentType": 5126,
      "count": 12336,
      "type": "VEC2"
    }
  ],
  "asset": {
    "generator": "Adobe Substance 3D Painter 11.1.0",
    "version": "2.0"
  },
  "bufferViews": [
    {
      "buffer": 0,
      "byteLength": 2412,
      "target": 34963
    },
    {
      "buffer": 0,
      "byteLength": 2448,
      "byteOffset": 2412,
      "target": 34962
    },
    {
      "buffer": 0,
      "byteLength": 2448,
      "byteOffset": 4860,
      "target": 34962
    },
    {
      "buffer": 0,
      "byteLength": 3264,
      "byteOffset": 7308,
      "target": 34962
    },
    {
      "buffer": 0,
      "byteLength": 1632,
      "byteOffset": 10572,
      "target": 34962
    },
    {
      "buffer": 0,
      "byteLength": 149892,
      "byteOffset": 12204,
      "target": 34963
    },
    {
      "buffer": 0,
      "byteLength": 148032,
      "byteOffset": 162096,
      "target": 34962
    },
    {
      "buffer": 0,
      "byteLength": 148032,
      "byteOffset": 310128,
      "target": 34962
    },
    {
      "buffer": 0,
      "byteLength": 197376,
      "byteOffset": 458160,
      "target": 34962
    },
    {
      "buffer": 0,
      "byteLength": 98688,
      "byteOffset": 655536,
      "target": 34962
    }
  ],
  "buffers": [
    {
      "byteLength": 754224,
      "uri": "Untitled.bin"
    }
  ],
  "images": [
    {
      "uri": "Body_baseColor.png"
    },
    {
      "uri": "Body_occlusionRoughnessMetallic.png"
    },
    {
      "uri": "Body_normal.png"
    },
    {
      "uri": "Top_Plate_baseColor.png"
    },
    {
      "uri": "Top_Plate_occlusionRoughnessMetallic.png"
    },
    {
      "uri": "Top_Plate_normal.png"
    }
  ],
  "materials": [
    {
      "alphaMode": "OPAQUE",
      "name": "Body",
      "normalTexture": {
        "index": 2
      },
      "occlusionTexture": {
        "index": 1
      },
      "pbrMetallicRoughness": {
        "baseColorTexture": {
          "index": 0
        },
        "metallicRoughnessTexture": {
          "index": 1
        }
      }
    },
    {
      "alphaMode": "OPAQUE",
      "name": "Top_Plate",
      "normalTexture": {
        "index": 5
      },
      "occlusionTexture": {
        "index": 4
      },
      "pbrMetallicRoughness": {
        "baseColorTexture": {
          "index": 3
        },
        "metallicRoughnessTexture": {
          "index": 4
        }
      }
    }
  ],
  "meshes": [
    {
      "name": "Top_Part Lantern",
      "primitives": [
        {
          "attributes": {
            "NORMAL": 2,
            "POSITION": 1,
            "TANGENT": 3,
            "TEXCOORD_0": 4
          },
          "indices": 0,
          "material": 1,
          "mode": 4
        }
      ]
    },
    {
      "name": "Lantern Body1",
      "primitives": [
        {
          "attributes": {
            "NORMAL": 7,
            "POSITION": 6,
            "TANGENT": 8,
            "TEXCOORD_0": 9
          },
          "indices": 5,
          "material": 0,
          "mode": 4
        }
      ]
    }
  ],
  "nodes": [
    {
      "children": [
        1,
        3,
        5
      ],
      "name": "Lantern.obj",
      "scale": [
        0.00999999977648258,
        0.00999999977648258,
        0.00999999977648258
      ]
    },
    {
      "children": [
        2
      ],
      "name": "Top_Part Lantern"
    },
    {
      "mesh": 0,
      "name": "Top_Part Lantern"
    },
    {
      "children": [
        4
      ],
      "name": "Lantern Body1"
    },
    {
      "mesh": 1,
      "name": "Lantern Body1"
    },
    {
      "name": "Lantern Bulb"
    }
  ],
  "samplers": [
    {
      "magFilter": 9729,
      "minFilter": 9985,
      "wrapS": 10497,
      "wrapT": 10497
    }
  ],
  "scene": 0,
  "scenes": [
    {
      "name": "Scene",
      "nodes": [
        0
      ]
    }
  ],
  "textures": [
    {
      "sampler": 0,
      "source": 0
    },
    {
      "sampler": 0,
      "source": 1
    },
    {
      "sampler": 0,
      "source": 2
    },
    {
      "sampler": 0,
      "source": 3
    },
    {
      "sampler": 0,
      "source": 4
    },
    {
      "sampler": 0,
      "source": 5
    }
  ]
}